<?xml version="1.0" encoding="utf-8" standalone="no"?>
<!DOCTYPE svg PUBLIC "-//W3C//DTD SVG 1.1//EN"
  "http://www.w3.org/Graphics/SVG/1.1/DTD/svg11.dtd">
<svg xmlns:xlink="http://www.w3.org/1999/xlink" width="1048.518pt" height="280.512pt" viewBox="0 0 1048.518 280.512" xmlns="http://www.w3.org/2000/svg" version="1.1">
 <metadata>
  <rdf:RDF xmlns:dc="http://purl.org/dc/elements/1.1/" xmlns:cc="http://creativecommons.org/ns#" xmlns:rdf="http://www.w3.org/1999/02/22-rdf-syntax-ns#">
   <cc:Work>
    <dc:type rdf:resource="http://purl.org/dc/dcmitype/StillImage"/>
    <dc:date>2025-11-22T20:03:04.677432</dc:date>
    <dc:format>image/svg+xml</dc:format>
    <dc:creator>
     <cc:Agent>
      <dc:title>Matplotlib v3.10.7, https://matplotlib.org/</dc:title>
     </cc:Agent>
    </dc:creator>
   </cc:Work>
  </rdf:RDF>
 </metadata>
 <defs>
  <style type="text/css">*{stroke-linejoin: round; stroke-linecap: butt}</style>
 </defs>
 <g id="figure_1">
  <g id="patch_1">
   <path d="M 0 280.512
L 1048.518 280.512
L 1048.518 0
L 0 0
L 0 280.512
z
" style="fill: none"/>
  </g>
  <g id="axes_1">
   <g id="patch_2">
    <path d="M 184.608 26.208
Q 105.408 45.216 26.208 64.224
" style="fill: none; stroke: #689d69; stroke-width: 5; stroke-linecap: round"/>
   </g>
   <g id="patch_3">
    <path d="M 184.608 102.24
Q 105.408 83.232 26.208 64.224
" style="fill: none; stroke: #458587; stroke-width: 5; stroke-linecap: round"/>
   </g>
   <g id="patch_4">
    <path d="M 184.608 178.272
Q 105.408 121.248 26.208 64.224
" style="fill: none; stroke: #d79922; stroke-width: 5; stroke-linecap: round"/>
   </g>
   <g id="patch_5">
    <path d="M 184.608 254.304
Q 105.408 159.264 26.208 64.224
" style="fill: none; stroke: #cc231c; stroke-width: 5; stroke-linecap: round"/>
   </g>
   <g id="patch_6">
    <path d="M 184.608 26.208
Q 105.408 83.232 26.208 140.256
" style="fill: none; stroke: #689d69; stroke-width: 5; stroke-linecap: round"/>
   </g>
   <g id="patch_7">
    <path d="M 184.608 102.24
Q 105.408 121.248 26.208 140.256
" style="fill: none; stroke: #458587; stroke-width: 5; stroke-linecap: round"/>
   </g>
   <g id="patch_8">
    <path d="M 184.608 178.272
Q 105.408 159.264 26.208 140.256
" style="fill: none; stroke: #d79922; stroke-width: 5; stroke-linecap: round"/>
   </g>
   <g id="patch_9">
    <path d="M 184.608 254.304
Q 105.408 197.28 26.208 140.256
" style="fill: none; stroke: #cc231c; stroke-width: 5; stroke-linecap: round"/>
   </g>
   <g id="patch_10">
    <path d="M 184.608 26.208
Q 105.408 121.248 26.208 216.288
" style="fill: none; stroke: #689d69; stroke-width: 5; stroke-linecap: round"/>
   </g>
   <g id="patch_11">
    <path d="M 184.608 102.24
Q 105.408 159.264 26.208 216.288
" style="fill: none; stroke: #458587; stroke-width: 5; stroke-linecap: round"/>
   </g>
   <g id="patch_12">
    <path d="M 184.608 178.272
Q 105.408 197.28 26.208 216.288
" style="fill: none; stroke: #d79922; stroke-width: 5; stroke-linecap: round"/>
   </g>
   <g id="patch_13">
    <path d="M 184.608 254.304
Q 105.408 235.296 26.208 216.288
" style="fill: none; stroke: #cc231c; stroke-width: 5; stroke-linecap: round"/>
   </g>
   <g id="patch_14">
    <path d="M 343.008 102.24
Q 263.808 64.224 184.608 26.208
" style="fill: none; stroke: #689d69; stroke-width: 5; stroke-linecap: round"/>
   </g>
   <g id="patch_15">
    <path d="M 343.008 178.272
Q 263.808 102.24 184.608 26.208
" style="fill: none; stroke: #689d69; stroke-width: 5; stroke-linecap: round"/>
   </g>
   <g id="patch_16">
    <path d="M 343.008 102.24
Q 263.808 102.24 184.608 102.24
" style="fill: none; stroke: #458587; stroke-width: 5; stroke-linecap: round"/>
   </g>
   <g id="patch_17">
    <path d="M 343.008 178.272
Q 263.808 140.256 184.608 102.24
" style="fill: none; stroke: #458587; stroke-width: 5; stroke-linecap: round"/>
   </g>
   <g id="patch_18">
    <path d="M 343.008 102.24
Q 263.808 140.256 184.608 178.272
" style="fill: none; stroke: #d79922; stroke-width: 5; stroke-linecap: round"/>
   </g>
   <g id="patch_19">
    <path d="M 343.008 178.272
Q 263.808 178.272 184.608 178.272
" style="fill: none; stroke: #d79922; stroke-width: 5; stroke-linecap: round"/>
   </g>
   <g id="patch_20">
    <path d="M 343.008 102.24
Q 263.808 178.272 184.608 254.304
" style="fill: none; stroke: #cc231c; stroke-width: 5; stroke-linecap: round"/>
   </g>
   <g id="patch_21">
    <path d="M 343.008 178.272
Q 263.808 216.288 184.608 254.304
" style="fill: none; stroke: #cc231c; stroke-width: 5; stroke-linecap: round"/>
   </g>
   <g id="patch_22">
    <path d="M 26.208 80.064
C 30.408817 80.064 34.438145 78.394998 37.408571 75.424571
C 40.378998 72.454145 42.048 68.424817 42.048 64.224
C 42.048 60.023183 40.378998 55.993855 37.408571 53.023429
C 34.438145 50.053002 30.408817 48.384 26.208 48.384
C 22.007183 48.384 17.977855 50.053002 15.007429 53.023429
C 12.037002 55.993855 10.368 60.023183 10.368 64.224
C 10.368 68.424817 12.037002 72.454145 15.007429 75.424571
C 17.977855 78.394998 22.007183 80.064 26.208 80.064
z
" clip-path="url(#p74630e5748)" style="fill: #eadbb2; stroke: #282828; stroke-width: 2.5; stroke-linejoin: miter"/>
   </g>
   <g id="patch_23">
    <path d="M 26.208 156.096
C 30.408817 156.096 34.438145 154.426998 37.408571 151.456571
C 40.378998 148.486145 42.048 144.456817 42.048 140.256
C 42.048 136.055183 40.378998 132.025855 37.408571 129.055429
C 34.438145 126.085002 30.408817 124.416 26.208 124.416
C 22.007183 124.416 17.977855 126.085002 15.007429 129.055429
C 12.037002 132.025855 10.368 136.055183 10.368 140.256
C 10.368 144.456817 12.037002 148.486145 15.007429 151.456571
C 17.977855 154.426998 22.007183 156.096 26.208 156.096
z
" clip-path="url(#p74630e5748)" style="fill: #eadbb2; stroke: #282828; stroke-width: 2.5; stroke-linejoin: miter"/>
   </g>
   <g id="patch_24">
    <path d="M 26.208 232.128
C 30.408817 232.128 34.438145 230.458998 37.408571 227.488571
C 40.378998 224.518145 42.048 220.488817 42.048 216.288
C 42.048 212.087183 40.378998 208.057855 37.408571 205.087429
C 34.438145 202.117002 30.408817 200.448 26.208 200.448
C 22.007183 200.448 17.977855 202.117002 15.007429 205.087429
C 12.037002 208.057855 10.368 212.087183 10.368 216.288
C 10.368 220.488817 12.037002 224.518145 15.007429 227.488571
C 17.977855 230.458998 22.007183 232.128 26.208 232.128
z
" clip-path="url(#p74630e5748)" style="fill: #eadbb2; stroke: #282828; stroke-width: 2.5; stroke-linejoin: miter"/>
   </g>
   <g id="patch_25">
    <path d="M 184.608 42.048
C 188.808817 42.048 192.838145 40.378998 195.808571 37.408571
C 198.778998 34.438145 200.448 30.408817 200.448 26.208
C 200.448 22.007183 198.778998 17.977855 195.808571 15.007429
C 192.838145 12.037002 188.808817 10.368 184.608 10.368
C 180.407183 10.368 176.377855 12.037002 173.407429 15.007429
C 170.437002 17.977855 168.768 22.007183 168.768 26.208
C 168.768 30.408817 170.437002 34.438145 173.407429 37.408571
C 176.377855 40.378998 180.407183 42.048 184.608 42.048
z
" clip-path="url(#p74630e5748)" style="fill: #eadbb2; stroke: #282828; stroke-width: 2.5; stroke-linejoin: miter"/>
   </g>
   <g id="patch_26">
    <path d="M 184.608 118.08
C 188.808817 118.08 192.838145 116.410998 195.808571 113.440571
C 198.778998 110.470145 200.448 106.440817 200.448 102.24
C 200.448 98.039183 198.778998 94.009855 195.808571 91.039429
C 192.838145 88.069002 188.808817 86.4 184.608 86.4
C 180.407183 86.4 176.377855 88.069002 173.407429 91.039429
C 170.437002 94.009855 168.768 98.039183 168.768 102.24
C 168.768 106.440817 170.437002 110.470145 173.407429 113.440571
C 176.377855 116.410998 180.407183 118.08 184.608 118.08
z
" clip-path="url(#p74630e5748)" style="fill: #eadbb2; stroke: #282828; stroke-width: 2.5; stroke-linejoin: miter"/>
   </g>
   <g id="patch_27">
    <path d="M 184.608 194.112
C 188.808817 194.112 192.838145 192.442998 195.808571 189.472571
C 198.778998 186.502145 200.448 182.472817 200.448 178.272
C 200.448 174.071183 198.778998 170.041855 195.808571 167.071429
C 192.838145 164.101002 188.808817 162.432 184.608 162.432
C 180.407183 162.432 176.377855 164.101002 173.407429 167.071429
C 170.437002 170.041855 168.768 174.071183 168.768 178.272
C 168.768 182.472817 170.437002 186.502145 173.407429 189.472571
C 176.377855 192.442998 180.407183 194.112 184.608 194.112
z
" clip-path="url(#p74630e5748)" style="fill: #eadbb2; stroke: #282828; stroke-width: 2.5; stroke-linejoin: miter"/>
   </g>
   <g id="patch_28">
    <path d="M 184.608 270.144
C 188.808817 270.144 192.838145 268.474998 195.808571 265.504571
C 198.778998 262.534145 200.448 258.504817 200.448 254.304
C 200.448 250.103183 198.778998 246.073855 195.808571 243.103429
C 192.838145 240.133002 188.808817 238.464 184.608 238.464
C 180.407183 238.464 176.377855 240.133002 173.407429 243.103429
C 170.437002 246.073855 168.768 250.103183 168.768 254.304
C 168.768 258.504817 170.437002 262.534145 173.407429 265.504571
C 176.377855 268.474998 180.407183 270.144 184.608 270.144
z
" clip-path="url(#p74630e5748)" style="fill: #eadbb2; stroke: #282828; stroke-width: 2.5; stroke-linejoin: miter"/>
   </g>
   <g id="patch_29">
    <path d="M 343.008 118.08
C 347.208817 118.08 351.238145 116.410998 354.208571 113.440571
C 357.178998 110.470145 358.848 106.440817 358.848 102.24
C 358.848 98.039183 357.178998 94.009855 354.208571 91.039429
C 351.238145 88.069002 347.208817 86.4 343.008 86.4
C 338.807183 86.4 334.777855 88.069002 331.807429 91.039429
C 328.837002 94.009855 327.168 98.039183 327.168 102.24
C 327.168 106.440817 328.837002 110.470145 331.807429 113.440571
C 334.777855 116.410998 338.807183 118.08 343.008 118.08
z
" clip-path="url(#p74630e5748)" style="fill: #eadbb2; stroke: #282828; stroke-width: 2.5; stroke-linejoin: miter"/>
   </g>
   <g id="patch_30">
    <path d="M 343.008 194.112
C 347.208817 194.112 351.238145 192.442998 354.208571 189.472571
C 357.178998 186.502145 358.848 182.472817 358.848 178.272
C 358.848 174.071183 357.178998 170.041855 354.208571 167.071429
C 351.238145 164.101002 347.208817 162.432 343.008 162.432
C 338.807183 162.432 334.777855 164.101002 331.807429 167.071429
C 328.837002 170.041855 327.168 174.071183 327.168 178.272
C 327.168 182.472817 328.837002 186.502145 331.807429 189.472571
C 334.777855 192.442998 338.807183 194.112 343.008 194.112
z
" clip-path="url(#p74630e5748)" style="fill: #eadbb2; stroke: #282828; stroke-width: 2.5; stroke-linejoin: miter"/>
   </g>
   <g id="text_1">
    <path d="M 519.318 159.929437
L 525.646125 147.976312
L 525.646125 213.029437
L 519.318 213.029437
L 519.318 159.929437
z
M 531.97425 135.685687
L 538.302375 123.732562
L 538.302375 213.029437
L 531.97425 213.029437
L 531.97425 135.685687
z
M 544.6305 111.779437
L 550.958625 99.741937
L 550.958625 213.029437
L 544.6305 213.029437
L 544.6305 111.779437
z
M 502.16175 156.948187
L 498.56175 150.366937
L 542.1555 67.482562
L 549.271125 67.482562
L 502.16175 156.948187
z
M 494.877375 143.166937
L 491.193 136.473187
L 527.7555 67.482562
L 534.9555 67.482562
L 494.877375 143.166937
z
M 452.521125 148.679437
L 458.84925 160.632562
L 458.84925 213.029437
L 452.521125 213.029437
L 452.521125 148.679437
z
M 439.864875 124.604437
L 446.193 136.557562
L 446.193 213.029437
L 439.864875 213.029437
L 439.864875 124.604437
z
M 427.208625 100.529437
L 433.53675 112.566937
L 433.53675 213.029437
L 427.208625 213.029437
L 427.208625 100.529437
z
M 478.339875 175.060687
L 471.22425 175.060687
L 420.8805 79.520062
L 420.8805 213.029437
L 414.552375 213.029437
L 414.552375 67.482562
L 421.668 67.482562
L 478.339875 175.060687
z
M 492.683625 175.060687
L 485.483625 175.060687
L 428.868 67.482562
L 436.068 67.482562
L 492.683625 175.060687
z
M 557.28675 79.520062
L 506.914875 175.060687
L 499.714875 175.060687
L 443.183625 67.482562
L 450.327375 67.482562
L 503.39925 168.366937
L 556.38675 67.482562
L 563.614875 67.482562
L 563.614875 213.029437
L 557.28675 213.029437
L 557.28675 79.520062
z
M 629.532844 144.123187
L 666.264094 144.123187
Q 675.320344 144.123187 681.592219 138.020062
Q 687.892219 131.916937 687.892219 120.751312
Q 687.892219 112.398187 681.282844 105.760687
Q 674.701594 99.123187 666.264094 99.123187
L 611.954719 99.123187
L 611.954719 213.029437
L 605.626594 213.029437
L 605.626594 92.795062
L 666.264094 92.795062
Q 677.345344 92.795062 685.782844 101.316937
Q 694.220344 109.838812 694.220344 120.751312
Q 694.220344 134.195062 686.035969 142.323187
Q 677.851594 150.451312 666.264094 150.451312
L 629.532844 150.451312
L 629.532844 144.123187
z
M 629.532844 156.779437
L 666.264094 156.779437
Q 675.404719 156.779437 683.167219 152.335687
Q 690.957844 147.891937 695.739094 139.566937
Q 700.548469 131.213812 700.548469 120.751312
Q 700.548469 107.195062 690.198469 96.845062
Q 679.876594 86.466937 666.264094 86.466937
L 599.298469 86.466937
L 599.298469 213.029437
L 592.970344 213.029437
L 592.970344 80.138812
L 666.264094 80.138812
Q 676.895344 80.138812 686.289094 85.763812
Q 695.710969 91.388812 701.279719 100.810687
Q 706.876594 110.204437 706.876594 120.751312
Q 706.876594 132.704437 701.251594 142.520062
Q 695.626594 152.307562 686.345344 157.707562
Q 677.064094 163.107562 666.264094 163.107562
L 629.532844 163.107562
L 629.532844 156.779437
z
M 629.532844 169.435687
L 666.264094 169.435687
Q 675.657844 169.435687 684.264094 165.695062
Q 692.898469 161.954437 699.254719 155.598187
Q 705.639094 149.213812 709.407844 140.129437
Q 713.204719 131.016937 713.204719 120.751312
Q 713.204719 108.432562 706.764094 97.576312
Q 700.351594 86.720062 689.495344 80.279437
Q 678.667219 73.810687 666.264094 73.810687
L 586.642219 73.810687
L 586.642219 213.029437
L 580.314094 213.029437
L 580.314094 67.482562
L 666.264094 67.482562
Q 680.326594 67.482562 692.617219 74.823187
Q 704.935969 82.163812 712.220344 94.482562
Q 719.532844 106.773187 719.532844 120.751312
Q 719.532844 133.210687 715.201594 143.729437
Q 710.898469 154.220062 703.614094 161.166937
Q 696.329719 168.113812 686.654719 171.938812
Q 676.979719 175.763812 666.264094 175.763812
L 629.532844 175.763812
L 629.532844 169.435687
z
M 624.610969 213.029437
L 618.282844 213.029437
L 618.282844 105.451312
L 666.264094 105.451312
Q 672.507844 105.451312 677.035969 110.035687
Q 681.564094 114.591937 681.564094 120.751312
Q 681.564094 137.795062 666.264094 137.795062
L 629.532844 137.795062
L 629.532844 131.466937
L 666.264094 131.466937
Q 670.482844 131.466937 672.845344 129.104437
Q 675.235969 126.713812 675.235969 120.751312
Q 675.235969 116.870062 672.620344 114.338812
Q 670.032844 111.779437 666.264094 111.779437
L 624.610969 111.779437
L 624.610969 213.029437
z
M 836.778937 142.970062
L 830.450812 132.507562
L 830.450812 67.482562
L 836.778937 67.482562
L 836.778937 142.970062
z
M 849.435187 163.726312
L 843.107062 153.095062
L 843.107062 67.482562
L 849.435187 67.482562
L 849.435187 163.726312
z
M 862.091437 184.735687
L 855.763312 173.991937
L 855.763312 67.482562
L 862.091437 67.482562
L 862.091437 184.735687
z
M 771.388312 137.541937
L 777.716437 147.976312
L 777.716437 213.029437
L 771.388312 213.029437
L 771.388312 137.541937
z
M 758.732062 116.785687
L 765.060187 127.416937
L 765.060187 213.029437
L 758.732062 213.029437
L 758.732062 116.785687
z
M 746.075812 95.776312
L 752.403937 106.491937
L 752.403937 213.029437
L 746.075812 213.029437
L 746.075812 95.776312
z
M 748.269563 67.482562
L 755.638312 67.482562
L 845.132063 213.029437
L 837.735187 213.029437
L 748.269563 67.482562
z
M 763.203937 67.482562
L 770.685187 67.482562
L 860.066438 213.029437
L 852.500812 213.029437
L 763.203937 67.482562
z
M 778.053938 67.482562
L 785.450812 67.482562
L 868.419562 202.735687
L 868.419562 67.482562
L 874.747687 67.482562
L 874.747687 213.029437
Q 874.747687 213.029437 867.266437 213.029437
L 778.053938 67.482562
z
M 739.747687 77.776312
L 739.747687 213.029437
L 733.419562 213.029437
L 733.419562 67.482562
Q 733.419562 67.482562 740.957063 67.482562
L 830.169562 213.029437
L 822.885188 213.029437
L 739.747687 77.776312
z
M 994.806281 142.970062
L 988.478156 132.507562
L 988.478156 67.482562
L 994.806281 67.482562
L 994.806281 142.970062
z
M 1007.462531 163.726312
L 1001.134406 153.095062
L 1001.134406 67.482562
L 1007.462531 67.482562
L 1007.462531 163.726312
z
M 1020.118781 184.735687
L 1013.790656 173.991937
L 1013.790656 67.482562
L 1020.118781 67.482562
L 1020.118781 184.735687
z
M 929.415656 137.541937
L 935.743781 147.976312
L 935.743781 213.029437
L 929.415656 213.029437
L 929.415656 137.541937
z
M 916.759406 116.785687
L 923.087531 127.416937
L 923.087531 213.029437
L 916.759406 213.029437
L 916.759406 116.785687
z
M 904.103156 95.776312
L 910.431281 106.491937
L 910.431281 213.029437
L 904.103156 213.029437
L 904.103156 95.776312
z
M 906.296906 67.482562
L 913.665656 67.482562
L 1003.159406 213.029437
L 995.762531 213.029437
L 906.296906 67.482562
z
M 921.231281 67.482562
L 928.712531 67.482562
L 1018.093781 213.029437
L 1010.528156 213.029437
L 921.231281 67.482562
z
M 936.081281 67.482562
L 943.478156 67.482562
L 1026.446906 202.735687
L 1026.446906 67.482562
L 1032.775031 67.482562
L 1032.775031 213.029437
Q 1032.775031 213.029437 1025.293781 213.029437
L 936.081281 67.482562
z
M 897.775031 77.776312
L 897.775031 213.029437
L 891.446906 213.029437
L 891.446906 67.482562
Q 891.446906 67.482562 898.984406 67.482562
L 988.196906 213.029437
L 980.912531 213.029437
L 897.775031 77.776312
z
" style="fill: #eadbb2; stroke: #282828; stroke-width: 5"/>
    <path d="M 519.318 159.929437
L 525.646125 147.976312
L 525.646125 213.029437
L 519.318 213.029437
L 519.318 159.929437
z
M 531.97425 135.685687
L 538.302375 123.732562
L 538.302375 213.029437
L 531.97425 213.029437
L 531.97425 135.685687
z
M 544.6305 111.779437
L 550.958625 99.741937
L 550.958625 213.029437
L 544.6305 213.029437
L 544.6305 111.779437
z
M 502.16175 156.948187
L 498.56175 150.366937
L 542.1555 67.482562
L 549.271125 67.482562
L 502.16175 156.948187
z
M 494.877375 143.166937
L 491.193 136.473187
L 527.7555 67.482562
L 534.9555 67.482562
L 494.877375 143.166937
z
M 452.521125 148.679437
L 458.84925 160.632562
L 458.84925 213.029437
L 452.521125 213.029437
L 452.521125 148.679437
z
M 439.864875 124.604437
L 446.193 136.557562
L 446.193 213.029437
L 439.864875 213.029437
L 439.864875 124.604437
z
M 427.208625 100.529437
L 433.53675 112.566937
L 433.53675 213.029437
L 427.208625 213.029437
L 427.208625 100.529437
z
M 478.339875 175.060687
L 471.22425 175.060687
L 420.8805 79.520062
L 420.8805 213.029437
L 414.552375 213.029437
L 414.552375 67.482562
L 421.668 67.482562
L 478.339875 175.060687
z
M 492.683625 175.060687
L 485.483625 175.060687
L 428.868 67.482562
L 436.068 67.482562
L 492.683625 175.060687
z
M 557.28675 79.520062
L 506.914875 175.060687
L 499.714875 175.060687
L 443.183625 67.482562
L 450.327375 67.482562
L 503.39925 168.366937
L 556.38675 67.482562
L 563.614875 67.482562
L 563.614875 213.029437
L 557.28675 213.029437
L 557.28675 79.520062
z
M 629.532844 144.123187
L 666.264094 144.123187
Q 675.320344 144.123187 681.592219 138.020062
Q 687.892219 131.916937 687.892219 120.751312
Q 687.892219 112.398187 681.282844 105.760687
Q 674.701594 99.123187 666.264094 99.123187
L 611.954719 99.123187
L 611.954719 213.029437
L 605.626594 213.029437
L 605.626594 92.795062
L 666.264094 92.795062
Q 677.345344 92.795062 685.782844 101.316937
Q 694.220344 109.838812 694.220344 120.751312
Q 694.220344 134.195062 686.035969 142.323187
Q 677.851594 150.451312 666.264094 150.451312
L 629.532844 150.451312
L 629.532844 144.123187
z
M 629.532844 156.779437
L 666.264094 156.779437
Q 675.404719 156.779437 683.167219 152.335687
Q 690.957844 147.891937 695.739094 139.566937
Q 700.548469 131.213812 700.548469 120.751312
Q 700.548469 107.195062 690.198469 96.845062
Q 679.876594 86.466937 666.264094 86.466937
L 599.298469 86.466937
L 599.298469 213.029437
L 592.970344 213.029437
L 592.970344 80.138812
L 666.264094 80.138812
Q 676.895344 80.138812 686.289094 85.763812
Q 695.710969 91.388812 701.279719 100.810687
Q 706.876594 110.204437 706.876594 120.751312
Q 706.876594 132.704437 701.251594 142.520062
Q 695.626594 152.307562 686.345344 157.707562
Q 677.064094 163.107562 666.264094 163.107562
L 629.532844 163.107562
L 629.532844 156.779437
z
M 629.532844 169.435687
L 666.264094 169.435687
Q 675.657844 169.435687 684.264094 165.695062
Q 692.898469 161.954437 699.254719 155.598187
Q 705.639094 149.213812 709.407844 140.129437
Q 713.204719 131.016937 713.204719 120.751312
Q 713.204719 108.432562 706.764094 97.576312
Q 700.351594 86.720062 689.495344 80.279437
Q 678.667219 73.810687 666.264094 73.810687
L 586.642219 73.810687
L 586.642219 213.029437
L 580.314094 213.029437
L 580.314094 67.482562
L 666.264094 67.482562
Q 680.326594 67.482562 692.617219 74.823187
Q 704.935969 82.163812 712.220344 94.482562
Q 719.532844 106.773187 719.532844 120.751312
Q 719.532844 133.210687 715.201594 143.729437
Q 710.898469 154.220062 703.614094 161.166937
Q 696.329719 168.113812 686.654719 171.938812
Q 676.979719 175.763812 666.264094 175.763812
L 629.532844 175.763812
L 629.532844 169.435687
z
M 624.610969 213.029437
L 618.282844 213.029437
L 618.282844 105.451312
L 666.264094 105.451312
Q 672.507844 105.451312 677.035969 110.035687
Q 681.564094 114.591937 681.564094 120.751312
Q 681.564094 137.795062 666.264094 137.795062
L 629.532844 137.795062
L 629.532844 131.466937
L 666.264094 131.466937
Q 670.482844 131.466937 672.845344 129.104437
Q 675.235969 126.713812 675.235969 120.751312
Q 675.235969 116.870062 672.620344 114.338812
Q 670.032844 111.779437 666.264094 111.779437
L 624.610969 111.779437
L 624.610969 213.029437
z
M 836.778937 142.970062
L 830.450812 132.507562
L 830.450812 67.482562
L 836.778937 67.482562
L 836.778937 142.970062
z
M 849.435187 163.726312
L 843.107062 153.095062
L 843.107062 67.482562
L 849.435187 67.482562
L 849.435187 163.726312
z
M 862.091437 184.735687
L 855.763312 173.991937
L 855.763312 67.482562
L 862.091437 67.482562
L 862.091437 184.735687
z
M 771.388312 137.541937
L 777.716437 147.976312
L 777.716437 213.029437
L 771.388312 213.029437
L 771.388312 137.541937
z
M 758.732062 116.785687
L 765.060187 127.416937
L 765.060187 213.029437
L 758.732062 213.029437
L 758.732062 116.785687
z
M 746.075812 95.776312
L 752.403937 106.491937
L 752.403937 213.029437
L 746.075812 213.029437
L 746.075812 95.776312
z
M 748.269563 67.482562
L 755.638312 67.482562
L 845.132063 213.029437
L 837.735187 213.029437
L 748.269563 67.482562
z
M 763.203937 67.482562
L 770.685187 67.482562
L 860.066438 213.029437
L 852.500812 213.029437
L 763.203937 67.482562
z
M 778.053938 67.482562
L 785.450812 67.482562
L 868.419562 202.735687
L 868.419562 67.482562
L 874.747687 67.482562
L 874.747687 213.029437
Q 874.747687 213.029437 867.266437 213.029437
L 778.053938 67.482562
z
M 739.747687 77.776312
L 739.747687 213.029437
L 733.419562 213.029437
L 733.419562 67.482562
Q 733.419562 67.482562 740.957063 67.482562
L 830.169562 213.029437
L 822.885188 213.029437
L 739.747687 77.776312
z
M 994.806281 142.970062
L 988.478156 132.507562
L 988.478156 67.482562
L 994.806281 67.482562
L 994.806281 142.970062
z
M 1007.462531 163.726312
L 1001.134406 153.095062
L 1001.134406 67.482562
L 1007.462531 67.482562
L 1007.462531 163.726312
z
M 1020.118781 184.735687
L 1013.790656 173.991937
L 1013.790656 67.482562
L 1020.118781 67.482562
L 1020.118781 184.735687
z
M 929.415656 137.541937
L 935.743781 147.976312
L 935.743781 213.029437
L 929.415656 213.029437
L 929.415656 137.541937
z
M 916.759406 116.785687
L 923.087531 127.416937
L 923.087531 213.029437
L 916.759406 213.029437
L 916.759406 116.785687
z
M 904.103156 95.776312
L 910.431281 106.491937
L 910.431281 213.029437
L 904.103156 213.029437
L 904.103156 95.776312
z
M 906.296906 67.482562
L 913.665656 67.482562
L 1003.159406 213.029437
L 995.762531 213.029437
L 906.296906 67.482562
z
M 921.231281 67.482562
L 928.712531 67.482562
L 1018.093781 213.029437
L 1010.528156 213.029437
L 921.231281 67.482562
z
M 936.081281 67.482562
L 943.478156 67.482562
L 1026.446906 202.735687
L 1026.446906 67.482562
L 1032.775031 67.482562
L 1032.775031 213.029437
Q 1032.775031 213.029437 1025.293781 213.029437
L 936.081281 67.482562
z
M 897.775031 77.776312
L 897.775031 213.029437
L 891.446906 213.029437
L 891.446906 67.482562
Q 891.446906 67.482562 898.984406 67.482562
L 988.196906 213.029437
L 980.912531 213.029437
L 897.775031 77.776312
z
" style="fill: #eadbb2"/>
    <path d="M 519.318 159.929437
L 525.646125 147.976312
L 525.646125 213.029437
L 519.318 213.029437
L 519.318 159.929437
z
M 531.97425 135.685687
L 538.302375 123.732562
L 538.302375 213.029437
L 531.97425 213.029437
L 531.97425 135.685687
z
M 544.6305 111.779437
L 550.958625 99.741937
L 550.958625 213.029437
L 544.6305 213.029437
L 544.6305 111.779437
z
M 502.16175 156.948187
L 498.56175 150.366937
L 542.1555 67.482562
L 549.271125 67.482562
L 502.16175 156.948187
z
M 494.877375 143.166937
L 491.193 136.473187
L 527.7555 67.482562
L 534.9555 67.482562
L 494.877375 143.166937
z
M 452.521125 148.679437
L 458.84925 160.632562
L 458.84925 213.029437
L 452.521125 213.029437
L 452.521125 148.679437
z
M 439.864875 124.604437
L 446.193 136.557562
L 446.193 213.029437
L 439.864875 213.029437
L 439.864875 124.604437
z
M 427.208625 100.529437
L 433.53675 112.566937
L 433.53675 213.029437
L 427.208625 213.029437
L 427.208625 100.529437
z
M 478.339875 175.060687
L 471.22425 175.060687
L 420.8805 79.520062
L 420.8805 213.029437
L 414.552375 213.029437
L 414.552375 67.482562
L 421.668 67.482562
L 478.339875 175.060687
z
M 492.683625 175.060687
L 485.483625 175.060687
L 428.868 67.482562
L 436.068 67.482562
L 492.683625 175.060687
z
M 557.28675 79.520062
L 506.914875 175.060687
L 499.714875 175.060687
L 443.183625 67.482562
L 450.327375 67.482562
L 503.39925 168.366937
L 556.38675 67.482562
L 563.614875 67.482562
L 563.614875 213.029437
L 557.28675 213.029437
L 557.28675 79.520062
z
M 629.532844 144.123187
L 666.264094 144.123187
Q 675.320344 144.123187 681.592219 138.020062
Q 687.892219 131.916937 687.892219 120.751312
Q 687.892219 112.398187 681.282844 105.760687
Q 674.701594 99.123187 666.264094 99.123187
L 611.954719 99.123187
L 611.954719 213.029437
L 605.626594 213.029437
L 605.626594 92.795062
L 666.264094 92.795062
Q 677.345344 92.795062 685.782844 101.316937
Q 694.220344 109.838812 694.220344 120.751312
Q 694.220344 134.195062 686.035969 142.323187
Q 677.851594 150.451312 666.264094 150.451312
L 629.532844 150.451312
L 629.532844 144.123187
z
M 629.532844 156.779437
L 666.264094 156.779437
Q 675.404719 156.779437 683.167219 152.335687
Q 690.957844 147.891937 695.739094 139.566937
Q 700.548469 131.213812 700.548469 120.751312
Q 700.548469 107.195062 690.198469 96.845062
Q 679.876594 86.466937 666.264094 86.466937
L 599.298469 86.466937
L 599.298469 213.029437
L 592.970344 213.029437
L 592.970344 80.138812
L 666.264094 80.138812
Q 676.895344 80.138812 686.289094 85.763812
Q 695.710969 91.388812 701.279719 100.810687
Q 706.876594 110.204437 706.876594 120.751312
Q 706.876594 132.704437 701.251594 142.520062
Q 695.626594 152.307562 686.345344 157.707562
Q 677.064094 163.107562 666.264094 163.107562
L 629.532844 163.107562
L 629.532844 156.779437
z
M 629.532844 169.435687
L 666.264094 169.435687
Q 675.657844 169.435687 684.264094 165.695062
Q 692.898469 161.954437 699.254719 155.598187
Q 705.639094 149.213812 709.407844 140.129437
Q 713.204719 131.016937 713.204719 120.751312
Q 713.204719 108.432562 706.764094 97.576312
Q 700.351594 86.720062 689.495344 80.279437
Q 678.667219 73.810687 666.264094 73.810687
L 586.642219 73.810687
L 586.642219 213.029437
L 580.314094 213.029437
L 580.314094 67.482562
L 666.264094 67.482562
Q 680.326594 67.482562 692.617219 74.823187
Q 704.935969 82.163812 712.220344 94.482562
Q 719.532844 106.773187 719.532844 120.751312
Q 719.532844 133.210687 715.201594 143.729437
Q 710.898469 154.220062 703.614094 161.166937
Q 696.329719 168.113812 686.654719 171.938812
Q 676.979719 175.763812 666.264094 175.763812
L 629.532844 175.763812
L 629.532844 169.435687
z
M 624.610969 213.029437
L 618.282844 213.029437
L 618.282844 105.451312
L 666.264094 105.451312
Q 672.507844 105.451312 677.035969 110.035687
Q 681.564094 114.591937 681.564094 120.751312
Q 681.564094 137.795062 666.264094 137.795062
L 629.532844 137.795062
L 629.532844 131.466937
L 666.264094 131.466937
Q 670.482844 131.466937 672.845344 129.104437
Q 675.235969 126.713812 675.235969 120.751312
Q 675.235969 116.870062 672.620344 114.338812
Q 670.032844 111.779437 666.264094 111.779437
L 624.610969 111.779437
L 624.610969 213.029437
z
M 836.778937 142.970062
L 830.450812 132.507562
L 830.450812 67.482562
L 836.778937 67.482562
L 836.778937 142.970062
z
M 849.435187 163.726312
L 843.107062 153.095062
L 843.107062 67.482562
L 849.435187 67.482562
L 849.435187 163.726312
z
M 862.091437 184.735687
L 855.763312 173.991937
L 855.763312 67.482562
L 862.091437 67.482562
L 862.091437 184.735687
z
M 771.388312 137.541937
L 777.716437 147.976312
L 777.716437 213.029437
L 771.388312 213.029437
L 771.388312 137.541937
z
M 758.732062 116.785687
L 765.060187 127.416937
L 765.060187 213.029437
L 758.732062 213.029437
L 758.732062 116.785687
z
M 746.075812 95.776312
L 752.403937 106.491937
L 752.403937 213.029437
L 746.075812 213.029437
L 746.075812 95.776312
z
M 748.269563 67.482562
L 755.638312 67.482562
L 845.132063 213.029437
L 837.735187 213.029437
L 748.269563 67.482562
z
M 763.203937 67.482562
L 770.685187 67.482562
L 860.066438 213.029437
L 852.500812 213.029437
L 763.203937 67.482562
z
M 778.053938 67.482562
L 785.450812 67.482562
L 868.419562 202.735687
L 868.419562 67.482562
L 874.747687 67.482562
L 874.747687 213.029437
Q 874.747687 213.029437 867.266437 213.029437
L 778.053938 67.482562
z
M 739.747687 77.776312
L 739.747687 213.029437
L 733.419562 213.029437
L 733.419562 67.482562
Q 733.419562 67.482562 740.957063 67.482562
L 830.169562 213.029437
L 822.885188 213.029437
L 739.747687 77.776312
z
M 994.806281 142.970062
L 988.478156 132.507562
L 988.478156 67.482562
L 994.806281 67.482562
L 994.806281 142.970062
z
M 1007.462531 163.726312
L 1001.134406 153.095062
L 1001.134406 67.482562
L 1007.462531 67.482562
L 1007.462531 163.726312
z
M 1020.118781 184.735687
L 1013.790656 173.991937
L 1013.790656 67.482562
L 1020.118781 67.482562
L 1020.118781 184.735687
z
M 929.415656 137.541937
L 935.743781 147.976312
L 935.743781 213.029437
L 929.415656 213.029437
L 929.415656 137.541937
z
M 916.759406 116.785687
L 923.087531 127.416937
L 923.087531 213.029437
L 916.759406 213.029437
L 916.759406 116.785687
z
M 904.103156 95.776312
L 910.431281 106.491937
L 910.431281 213.029437
L 904.103156 213.029437
L 904.103156 95.776312
z
M 906.296906 67.482562
L 913.665656 67.482562
L 1003.159406 213.029437
L 995.762531 213.029437
L 906.296906 67.482562
z
M 921.231281 67.482562
L 928.712531 67.482562
L 1018.093781 213.029437
L 1010.528156 213.029437
L 921.231281 67.482562
z
M 936.081281 67.482562
L 943.478156 67.482562
L 1026.446906 202.735687
L 1026.446906 67.482562
L 1032.775031 67.482562
L 1032.775031 213.029437
Q 1032.775031 213.029437 1025.293781 213.029437
L 936.081281 67.482562
z
M 897.775031 77.776312
L 897.775031 213.029437
L 891.446906 213.029437
L 891.446906 67.482562
Q 891.446906 67.482562 898.984406 67.482562
L 988.196906 213.029437
L 980.912531 213.029437
L 897.775031 77.776312
z
" style="fill: #eadbb2"/>
   </g>
  </g>
 </g>
 <defs>
  <clipPath id="p74630e5748">
   <rect x="7.2" y="7.2" width="354.816" height="266.112"/>
  </clipPath>
 </defs>
</svg>
