<?xml version="1.0" encoding="utf-8" standalone="no"?>
<!DOCTYPE svg PUBLIC "-//W3C//DTD SVG 1.1//EN"
  "http://www.w3.org/Graphics/SVG/1.1/DTD/svg11.dtd">
<svg xmlns:xlink="http://www.w3.org/1999/xlink" width="369.216pt" height="280.512pt" viewBox="0 0 369.216 280.512" xmlns="http://www.w3.org/2000/svg" version="1.1">
 <metadata>
  <rdf:RDF xmlns:dc="http://purl.org/dc/elements/1.1/" xmlns:cc="http://creativecommons.org/ns#" xmlns:rdf="http://www.w3.org/1999/02/22-rdf-syntax-ns#">
   <cc:Work>
    <dc:type rdf:resource="http://purl.org/dc/dcmitype/StillImage"/>
    <dc:date>2025-12-02T23:55:10.454064</dc:date>
    <dc:format>image/svg+xml</dc:format>
    <dc:creator>
     <cc:Agent>
      <dc:title>Matplotlib v3.10.7, https://matplotlib.org/</dc:title>
     </cc:Agent>
    </dc:creator>
   </cc:Work>
  </rdf:RDF>
 </metadata>
 <defs>
  <style type="text/css">*{stroke-linejoin: round; stroke-linecap: butt}</style>
 </defs>
 <g id="figure_1">
  <g id="patch_1">
   <path d="M 0 280.512
L 369.216 280.512
L 369.216 0
L 0 0
L 0 280.512
z
" style="fill: none"/>
  </g>
  <g id="axes_1">
   <g id="patch_2">
    <path d="M 184.608 26.208
Q 105.408 45.216 26.208 64.224
" style="fill: none; stroke: #689d69; stroke-width: 5; stroke-linecap: round"/>
   </g>
   <g id="patch_3">
    <path d="M 184.608 102.24
Q 105.408 83.232 26.208 64.224
" style="fill: none; stroke: #458587; stroke-width: 5; stroke-linecap: round"/>
   </g>
   <g id="patch_4">
    <path d="M 184.608 178.272
Q 105.408 121.248 26.208 64.224
" style="fill: none; stroke: #d79922; stroke-width: 5; stroke-linecap: round"/>
   </g>
   <g id="patch_5">
    <path d="M 184.608 254.304
Q 105.408 159.264 26.208 64.224
" style="fill: none; stroke: #cc231c; stroke-width: 5; stroke-linecap: round"/>
   </g>
   <g id="patch_6">
    <path d="M 184.608 26.208
Q 105.408 83.232 26.208 140.256
" style="fill: none; stroke: #689d69; stroke-width: 5; stroke-linecap: round"/>
   </g>
   <g id="patch_7">
    <path d="M 184.608 102.24
Q 105.408 121.248 26.208 140.256
" style="fill: none; stroke: #458587; stroke-width: 5; stroke-linecap: round"/>
   </g>
   <g id="patch_8">
    <path d="M 184.608 178.272
Q 105.408 159.264 26.208 140.256
" style="fill: none; stroke: #d79922; stroke-width: 5; stroke-linecap: round"/>
   </g>
   <g id="patch_9">
    <path d="M 184.608 254.304
Q 105.408 197.28 26.208 140.256
" style="fill: none; stroke: #cc231c; stroke-width: 5; stroke-linecap: round"/>
   </g>
   <g id="patch_10">
    <path d="M 184.608 26.208
Q 105.408 121.248 26.208 216.288
" style="fill: none; stroke: #689d69; stroke-width: 5; stroke-linecap: round"/>
   </g>
   <g id="patch_11">
    <path d="M 184.608 102.24
Q 105.408 159.264 26.208 216.288
" style="fill: none; stroke: #458587; stroke-width: 5; stroke-linecap: round"/>
   </g>
   <g id="patch_12">
    <path d="M 184.608 178.272
Q 105.408 197.28 26.208 216.288
" style="fill: none; stroke: #d79922; stroke-width: 5; stroke-linecap: round"/>
   </g>
   <g id="patch_13">
    <path d="M 184.608 254.304
Q 105.408 235.296 26.208 216.288
" style="fill: none; stroke: #cc231c; stroke-width: 5; stroke-linecap: round"/>
   </g>
   <g id="patch_14">
    <path d="M 343.008 102.24
Q 263.808 64.224 184.608 26.208
" style="fill: none; stroke: #689d69; stroke-width: 5; stroke-linecap: round"/>
   </g>
   <g id="patch_15">
    <path d="M 343.008 178.272
Q 263.808 102.24 184.608 26.208
" style="fill: none; stroke: #689d69; stroke-width: 5; stroke-linecap: round"/>
   </g>
   <g id="patch_16">
    <path d="M 343.008 102.24
Q 263.808 102.24 184.608 102.24
" style="fill: none; stroke: #458587; stroke-width: 5; stroke-linecap: round"/>
   </g>
   <g id="patch_17">
    <path d="M 343.008 178.272
Q 263.808 140.256 184.608 102.24
" style="fill: none; stroke: #458587; stroke-width: 5; stroke-linecap: round"/>
   </g>
   <g id="patch_18">
    <path d="M 343.008 102.24
Q 263.808 140.256 184.608 178.272
" style="fill: none; stroke: #d79922; stroke-width: 5; stroke-linecap: round"/>
   </g>
   <g id="patch_19">
    <path d="M 343.008 178.272
Q 263.808 178.272 184.608 178.272
" style="fill: none; stroke: #d79922; stroke-width: 5; stroke-linecap: round"/>
   </g>
   <g id="patch_20">
    <path d="M 343.008 102.24
Q 263.808 178.272 184.608 254.304
" style="fill: none; stroke: #cc231c; stroke-width: 5; stroke-linecap: round"/>
   </g>
   <g id="patch_21">
    <path d="M 343.008 178.272
Q 263.808 216.288 184.608 254.304
" style="fill: none; stroke: #cc231c; stroke-width: 5; stroke-linecap: round"/>
   </g>
   <g id="patch_22">
    <path d="M 26.208 80.064
C 30.408817 80.064 34.438145 78.394998 37.408571 75.424571
C 40.378998 72.454145 42.048 68.424817 42.048 64.224
C 42.048 60.023183 40.378998 55.993855 37.408571 53.023429
C 34.438145 50.053002 30.408817 48.384 26.208 48.384
C 22.007183 48.384 17.977855 50.053002 15.007429 53.023429
C 12.037002 55.993855 10.368 60.023183 10.368 64.224
C 10.368 68.424817 12.037002 72.454145 15.007429 75.424571
C 17.977855 78.394998 22.007183 80.064 26.208 80.064
z
" clip-path="url(#pe2492d44d4)" style="fill: #eadbb2; stroke: #282828; stroke-width: 2.5; stroke-linejoin: miter"/>
   </g>
   <g id="patch_23">
    <path d="M 26.208 156.096
C 30.408817 156.096 34.438145 154.426998 37.408571 151.456571
C 40.378998 148.486145 42.048 144.456817 42.048 140.256
C 42.048 136.055183 40.378998 132.025855 37.408571 129.055429
C 34.438145 126.085002 30.408817 124.416 26.208 124.416
C 22.007183 124.416 17.977855 126.085002 15.007429 129.055429
C 12.037002 132.025855 10.368 136.055183 10.368 140.256
C 10.368 144.456817 12.037002 148.486145 15.007429 151.456571
C 17.977855 154.426998 22.007183 156.096 26.208 156.096
z
" clip-path="url(#pe2492d44d4)" style="fill: #eadbb2; stroke: #282828; stroke-width: 2.5; stroke-linejoin: miter"/>
   </g>
   <g id="patch_24">
    <path d="M 26.208 232.128
C 30.408817 232.128 34.438145 230.458998 37.408571 227.488571
C 40.378998 224.518145 42.048 220.488817 42.048 216.288
C 42.048 212.087183 40.378998 208.057855 37.408571 205.087429
C 34.438145 202.117002 30.408817 200.448 26.208 200.448
C 22.007183 200.448 17.977855 202.117002 15.007429 205.087429
C 12.037002 208.057855 10.368 212.087183 10.368 216.288
C 10.368 220.488817 12.037002 224.518145 15.007429 227.488571
C 17.977855 230.458998 22.007183 232.128 26.208 232.128
z
" clip-path="url(#pe2492d44d4)" style="fill: #eadbb2; stroke: #282828; stroke-width: 2.5; stroke-linejoin: miter"/>
   </g>
   <g id="patch_25">
    <path d="M 184.608 42.048
C 188.808817 42.048 192.838145 40.378998 195.808571 37.408571
C 198.778998 34.438145 200.448 30.408817 200.448 26.208
C 200.448 22.007183 198.778998 17.977855 195.808571 15.007429
C 192.838145 12.037002 188.808817 10.368 184.608 10.368
C 180.407183 10.368 176.377855 12.037002 173.407429 15.007429
C 170.437002 17.977855 168.768 22.007183 168.768 26.208
C 168.768 30.408817 170.437002 34.438145 173.407429 37.408571
C 176.377855 40.378998 180.407183 42.048 184.608 42.048
z
" clip-path="url(#pe2492d44d4)" style="fill: #eadbb2; stroke: #282828; stroke-width: 2.5; stroke-linejoin: miter"/>
   </g>
   <g id="patch_26">
    <path d="M 184.608 118.08
C 188.808817 118.08 192.838145 116.410998 195.808571 113.440571
C 198.778998 110.470145 200.448 106.440817 200.448 102.24
C 200.448 98.039183 198.778998 94.009855 195.808571 91.039429
C 192.838145 88.069002 188.808817 86.4 184.608 86.4
C 180.407183 86.4 176.377855 88.069002 173.407429 91.039429
C 170.437002 94.009855 168.768 98.039183 168.768 102.24
C 168.768 106.440817 170.437002 110.470145 173.407429 113.440571
C 176.377855 116.410998 180.407183 118.08 184.608 118.08
z
" clip-path="url(#pe2492d44d4)" style="fill: #eadbb2; stroke: #282828; stroke-width: 2.5; stroke-linejoin: miter"/>
   </g>
   <g id="patch_27">
    <path d="M 184.608 194.112
C 188.808817 194.112 192.838145 192.442998 195.808571 189.472571
C 198.778998 186.502145 200.448 182.472817 200.448 178.272
C 200.448 174.071183 198.778998 170.041855 195.808571 167.071429
C 192.838145 164.101002 188.808817 162.432 184.608 162.432
C 180.407183 162.432 176.377855 164.101002 173.407429 167.071429
C 170.437002 170.041855 168.768 174.071183 168.768 178.272
C 168.768 182.472817 170.437002 186.502145 173.407429 189.472571
C 176.377855 192.442998 180.407183 194.112 184.608 194.112
z
" clip-path="url(#pe2492d44d4)" style="fill: #eadbb2; stroke: #282828; stroke-width: 2.5; stroke-linejoin: miter"/>
   </g>
   <g id="patch_28">
    <path d="M 184.608 270.144
C 188.808817 270.144 192.838145 268.474998 195.808571 265.504571
C 198.778998 262.534145 200.448 258.504817 200.448 254.304
C 200.448 250.103183 198.778998 246.073855 195.808571 243.103429
C 192.838145 240.133002 188.808817 238.464 184.608 238.464
C 180.407183 238.464 176.377855 240.133002 173.407429 243.103429
C 170.437002 246.073855 168.768 250.103183 168.768 254.304
C 168.768 258.504817 170.437002 262.534145 173.407429 265.504571
C 176.377855 268.474998 180.407183 270.144 184.608 270.144
z
" clip-path="url(#pe2492d44d4)" style="fill: #eadbb2; stroke: #282828; stroke-width: 2.5; stroke-linejoin: miter"/>
   </g>
   <g id="patch_29">
    <path d="M 343.008 118.08
C 347.208817 118.08 351.238145 116.410998 354.208571 113.440571
C 357.178998 110.470145 358.848 106.440817 358.848 102.24
C 358.848 98.039183 357.178998 94.009855 354.208571 91.039429
C 351.238145 88.069002 347.208817 86.4 343.008 86.4
C 338.807183 86.4 334.777855 88.069002 331.807429 91.039429
C 328.837002 94.009855 327.168 98.039183 327.168 102.24
C 327.168 106.440817 328.837002 110.470145 331.807429 113.440571
C 334.777855 116.410998 338.807183 118.08 343.008 118.08
z
" clip-path="url(#pe2492d44d4)" style="fill: #eadbb2; stroke: #282828; stroke-width: 2.5; stroke-linejoin: miter"/>
   </g>
   <g id="patch_30">
    <path d="M 343.008 194.112
C 347.208817 194.112 351.238145 192.442998 354.208571 189.472571
C 357.178998 186.502145 358.848 182.472817 358.848 178.272
C 358.848 174.071183 357.178998 170.041855 354.208571 167.071429
C 351.238145 164.101002 347.208817 162.432 343.008 162.432
C 338.807183 162.432 334.777855 164.101002 331.807429 167.071429
C 328.837002 170.041855 327.168 174.071183 327.168 178.272
C 327.168 182.472817 328.837002 186.502145 331.807429 189.472571
C 334.777855 192.442998 338.807183 194.112 343.008 194.112
z
" clip-path="url(#pe2492d44d4)" style="fill: #eadbb2; stroke: #282828; stroke-width: 2.5; stroke-linejoin: miter"/>
   </g>
  </g>
 </g>
 <defs>
  <clipPath id="pe2492d44d4">
   <rect x="7.2" y="7.2" width="354.816" height="266.112"/>
  </clipPath>
 </defs>
</svg>
